<?xml version="1.0" encoding="utf-8"?>
<!-- Generator: Adobe Illustrator 17.0.0, SVG Export Plug-In . SVG Version: 6.00 Build 0)  -->
<!DOCTYPE svg PUBLIC "-//W3C//DTD SVG 1.1//EN" "http://www.w3.org/Graphics/SVG/1.1/DTD/svg11.dtd">
<svg version="1.1" id="Layer_1" xmlns="http://www.w3.org/2000/svg" xmlns:xlink="http://www.w3.org/1999/xlink" x="0px" y="0px"
	 width="208.617px" height="102.182px" viewBox="0 0 208.617 102.182" enable-background="new 0 0 208.617 102.182"
	 xml:space="preserve">
<path id="nka" fill="#A30012" d="M132.086,95.123c1.888-4.938,3.711-9.564,5.408-14.236c0.447-1.23,0.961-2.738,0.621-3.872
	c-0.393-1.312-1.499-2.762-2.688-3.33c-0.558-0.267-2.622,1.185-2.989,2.219c-1.165,3.277-1.861,6.722-2.723,10.107
	c-0.737,2.893-1.896,4.738-5.435,5.447c-5.334,1.069-10.429,3.324-15.636,5.042c-1.452,0.479-2.941,0.845-4.792,0.291
	c1.032-0.656,2.064-1.311,3.097-1.967c-0.904-1.791-1.783-3.535-2.77-5.49c-2.715,1.578-5.382,3.232-8.143,4.711
	c-5.749,3.078-11.914,0.377-12.733-6.08c-0.898-7.079-1.289-14.274-1.13-21.401c0.044-1.989,2.817-3.917,4.567-6.168
	c-1.585-0.437-3.408-0.939-5.492-1.514c0.011-4.791-2.24-10.026,4.112-13.609c-1.811-0.576-2.834-0.901-3.858-1.226
	c-0.184-0.398-0.369-0.795-0.553-1.193c5.442-2.415,10.849-4.911,16.346-7.194c1.66-0.69,3.759-0.416,5.323-1.227
	c3.67-1.902,5.947-0.802,7.576,2.678c0.489,1.045,1.112,2.028,1.541,2.802c1.525-0.834,2.188-0.963,2.335-1.311
	c2.864-6.799,7.844-5.104,12.878-3.273c6.172,2.245,12.197,4.698,15.533,11.165c-1.348-0.663-2.696-1.325-3.707-1.822
	c-0.62,5.162-1.346,10.103-1.683,15.071c-0.058,0.853,1.379,2.095,2.398,2.687c6.516,3.784,6.852,4.566,5.155,11.735
	c-1.377,5.817-2.643,11.662-3.856,17.516C139.386,98.442,138.758,98.743,132.086,95.123z M91.443,84.355
	c6.665-2.345,12.748-3.423,13.365-10.84c0.094-1.132-1.398-3.436-1.512-3.395c-3.999,1.431-8.482,2.401-11.604,4.993
	C90.238,76.319,91.443,80.731,91.443,84.355z M106.532,50.511c-10.195-0.661-16.773,2.935-16.152,9.243
	c3.851-0.801,7.625-1.88,11.472-2.306C106.186,56.967,107.644,54.931,106.532,50.511z M117.458,56.604
	c3.78-1.772,9.35,5.052,11.197-2.22c1.189-4.68-4.225-4.059-7.098-4.623C116.379,48.745,117.439,52.855,117.458,56.604z
	 M113.029,75.936c4.114-0.818,9.21,2.511,10.39-3.961c0.138-0.755-2.982-2.731-4.802-3.097
	C113.599,67.868,112.845,71.181,113.029,75.936z"/>
<path id="n" fill="#A30012" d="M204.995,61.823c-2.384,11.056-4.46,21.626-7.103,32.051c-0.469,1.85-3.302,3.102-5.397,4.94
	c1.506,0.589,2.734,1.07,5.137,2.01c-2.17,0.529-3.212,1.077-4.169,0.956c-2.136-0.27-4.337-0.602-6.322-1.388
	c-12.073-4.779-13.55-6.008-9.549-18.142c2.655-8.053,5.346-16.094,8.055-24.128c0.92-2.73,1.686-5.288-2.413-5.998
	c-3.338-0.578-6.875-1.721-7.38,3.555c-0.665,6.948-1.316,13.898-2.048,20.839c-0.255,2.421-0.732,4.819-1.168,7.618
	c-2.39-0.277-4.318-0.5-6.752-0.782c0.544-8.556,1.074-16.897,1.6-25.172c-8.803-1.066-12.312,2.451-11.107,9.95
	c1.578,9.813,2.996,19.651,4.491,29.532c-2.613,1.153-4.995,2.204-8.053,3.553c-1.623-16.677-6.441-32.518-6.478-49.408
	c-0.587,0.233-1.758,0.698-3.089,1.227c0.236-0.516,0.328-1.016,0.623-1.318c5.735-5.855,11.727-11.468,19.861-13.715
	c6.339-1.751,8.349-0.412,11.486,6.738c2.518-2.216,4.774-4.583,7.427-6.359c1.159-0.776,3.204-0.707,4.714-0.389
	c3.877,0.815,6.055-0.587,7.029-5.043c-4.706-1.031-9.185-1.459-13.873,0.283c-2.19,0.814-6.462,1.665-6.728,1.087
	c-1.531-3.321-4.517-7.015-0.699-11.432c-1.812,0.482-3.624,0.964-5.436,1.446c7.288-5.832,15.253-10.091,24.602-10.2
	c1.892-0.022,4.367,2.518,5.586,4.487c1.438,2.323,1.577,5.407,2.682,7.988c1.994,4.659,3.035,8.897-0.932,13.323
	c-0.862,0.962,0.15,4.274,1.113,6.065c2.112,3.927,4.906,7.484,7.115,11.366C209.465,60.254,208.581,62.105,204.995,61.823z
	 M193.199,57.452c-1.781,5.032-3.019,8.751-4.41,12.413c-2.338,6.155-1.396,7.691,5.872,8.662
	C195.812,71.916,199.986,65.29,193.199,57.452z"/>
<path id="i" fill="#A30012" d="M74.659,102.182c-2.6,0-4.547,0-7.194,0c1.062-15.108,2.178-29.921,3.087-44.747
	c0.199-3.249-0.501-6.544-0.509-9.818c-0.018-7.152,0.219-14.304,0.207-21.457c-0.009-5.514-2.395-7.318-7.581-5.108
	c-4.066,1.732-7.71,4.453-11.546,6.728c-0.823,0.488-1.663,0.945-3.647,2.069c-0.215-6.436-0.728-12.009-0.462-17.544
	c0.154-3.209,2.57-4.357,6.09-2.979c-0.185,1.888-0.365,3.726-0.545,5.564c0.354,0.233,0.708,0.465,1.063,0.698
	c2.957-3.515,6.091-6.898,8.818-10.583c2.455-3.316,4.535-1.868,7.462-0.11c-0.154-1.638-0.307-3.276-0.459-4.893
	c5.921-0.092,9.281,2.736,9.098,7.744c-1.003,27.417-1.983,54.834-3.017,82.25C75.373,93.951,74.969,97.897,74.659,102.182z"/>
<path id="da" fill="#A30012" d="M1.348,93.031C0.024,82.065,2.262,47.386,5.001,42.692c-2.018,1.019-3.309,1.672-4.617,2.332
	c-0.141-0.315-0.457-0.691-0.369-0.87c3.22-6.584,16.994-13.826,23.946-12.618c2.181,0.379,3.46,1.022,3.059,3.914
	c-1.208,8.726-1.944,17.517-2.952,26.272c-0.816,7.089,0.959,9.586,9.043,11.542c0.607-5.112,1.791-10.169,1.648-15.188
	c-0.161-5.631,3.035-6.601,8.123-7.362c-0.203,3.703-0.378,7.066-0.574,10.427c-0.154,2.656-0.341,5.311-0.498,7.967
	c-0.182,3.061-0.011,5.793,4.274,5.391c3.41-0.321,6.047-0.257,6.251-5.414c0.353-8.956,2.045-17.865,3.297-26.777
	c1.12-7.977,1.192-7.967,6.59-9.316c-0.664,14.47-1.553,28.973-1.865,43.489c-0.097,4.491-2.891,6.11-6.322,7.768
	c0.268,0.431,0.535,0.863,0.803,1.294c1.913-0.545,3.827-1.09,5.736-1.642c-2.785,4.603-16.317,9.76-23.296,8.773
	c-0.579-3.067-1.169-6.189-1.758-9.31c-0.399-0.053-0.798-0.105-1.197-0.158c-1.819,3.239-3.638,6.479-5.454,9.713
	c-7.645-1.834-13.066-6.018-15.326-11.976c1.207,0.131,2.323,0.252,2.588,0.28c0.866-8.275,1.694-16.19,2.518-24.061
	c-4.882-1.657-10.748,2.463-10.904,8.079c-0.198,7.126-0.007,14.301,0.618,21.403C8.973,93.574,8.575,94.254,1.348,93.031z"/>
</svg>
