<?xml version="1.0" encoding="utf-8"?>
<!-- Generator: Adobe Illustrator 17.0.0, SVG Export Plug-In . SVG Version: 6.00 Build 0)  -->
<!DOCTYPE svg PUBLIC "-//W3C//DTD SVG 1.1//EN" "http://www.w3.org/Graphics/SVG/1.1/DTD/svg11.dtd">
<svg version="1.1" xmlns="http://www.w3.org/2000/svg" xmlns:xlink="http://www.w3.org/1999/xlink" x="0px" y="0px"
	 width="710.191px" height="406.642px" viewBox="0 0 710.191 406.642" enable-background="new 0 0 710.191 406.642"
	 xml:space="preserve">
<g id="Hidden">
	<polygon id="Star_Outline" fill="none" stroke="#000000" stroke-miterlimit="10" points="488.962,268.065 458.628,286.065 
		431.628,271.065 445.128,298.399 420.962,321.065 453.295,321.732 464.295,339.732 482.295,319.065 513.628,309.732 
		486.128,294.732 	"/>
</g>
<g id="Colour_Fill">
	<g id="Red">
		<path id="Cape__x28_Left_x29_" fill="#EB3335" d="M405.062,143.243c-1.803-0.123-3.604-0.276-5.409-0.363
			c-6.408-0.308-12.868,0.144-19.197-1.316c-9.167-2.367-17.555-6.429-24.754-12.527c-11.409-9.664-16.334-22.532-16.961-37.16
			c-0.115-2.683-1.355-4.109-3.381-4.881c-10.069-3.836-19.227-9.404-28.415-14.878c-19.344-11.523-37.749-24.451-55.77-37.931
			c-7.679-5.744-15.227-11.667-23.029-17.235c-1.008-0.719-2.268-3.322-4.521-1.148c-7.25,6.998-15.644,12.853-21.508,21.231
			c-4.94,7.058-9.854,14.168-10.987,23.061c-0.233,1.829-0.685,3.48,1.814,4.428c10.211,3.873,20.351,7.931,30.518,11.922
			c0.566,4.09-2.535,1.715-3.981,2.259c-8.365-3.104-16.507-6.789-25.208-9.009c-4.965-1.267-10.214-1.132-14.967-3.523
			c-3.899-1.962-6.474-4.371-5.745-9.114c0.378-2.46,0.46-4.971,0.932-7.41c1.207-6.236,0.696-12.418-0.119-19.851
			c-9.234,13.329-15.184,26.663-17.017,41.783c-0.647,5.336,0.229,8.928,6.388,9.84c3.381,0.501,6.598,2.042,9.927,2.979
			c20.041,5.637,40.167,10.991,60.206,16.602c16.585,4.644,33.395,8.381,49.91,13.292c16.668,4.956,33.688,8.735,50.172,14.331
			c12.356,4.194,24.818,8.163,36.036,15.155c5.134,3.2,10.326,5.554,17.044,4.524c11.086-1.701,16.225-2.444,21.043-5.679
			C406.615,142.926,405.838,143.084,405.062,143.243z"/>
		<path id="Cape__x28_Right_x29_" fill="#EB3335" d="M524.248,217.267c-8.477-3.468-16.381-8.687-25.974-8.807
			c-7.413-0.093-11.604,3.325-13.227,10.592c-0.435,1.946-0.967,3.882-1.234,5.852c-0.483,3.558-1.802,3.861-5.013,2.28
			c-9.436-4.646-18.803-13.907-15.365-26.904c0.303-1.143,1.102-2.812-0.381-3.633c-1.277-0.707-2.385,0.543-3.588,1.065
			c-7.269,3.151-12.557,8.325-16.182,15.279c-1.906,3.658-3.792,4.113-7.195,1.175c-10.103-8.722-8.464-22.569-0.402-31.727
			c0.639-0.726,1.833-1.129,1.468-2.3c-0.377-1.213-1.658-0.891-2.552-0.926c-7.48-0.289-14.99-0.196-22.439-0.825
			c-7.434-0.627-14.692-2.328-20.607-7.38c-1.177-1.005-3.179-2.016-2.343-3.923c0.711-1.622,2.629-0.889,4.071-0.857
			c6.487,0.148,12.993,0.571,19.424-0.606c2.796-0.511,5.626-1.224,7.466-3.94c-2.764-1.901-5.264-0.736-7.58-0.339
			c-13.928,2.387-25.34-4.416-36.513-10.664c-14.403-8.055-29.355-14.523-45.068-19.307c-24.223-7.374-48.38-14.953-73.447-19.218
			c-18.266-3.108-36.412-6.932-54.592-10.534c-18.048-3.576-36.074-7.264-54.104-10.932c-1.829-0.372-2.903,0.119-4.157,1.683
			c-3.853,4.803-5.952,10.524-8.957,15.753c-5.597,9.74-9.517,19.898-10.718,31.089c-0.317,2.955,0.773,4.672,3.672,5.572
			c5.889,1.829,11.743,3.683,18.007,3.676c14.995-0.017,29.989,0.056,44.984-0.005c11.649-0.048,23.298-0.157,34.924-1.116
			c1.498-0.124,3.898-0.527,4.214,1.581c0.272,1.816-1.833,1.435-3.055,1.507c-28.601,1.688-57.231,2.591-85.868,1.698
			c-8.994-0.281-18.301-0.539-26.337-5.807c0,0.001,0,0.002,0,0.002c-8.411-6.782-15.192-14.658-17.06-25.976
			c-1.764,4.551-4.299,8.428-5.241,13.012c-3.697,17.998,4.019,31.568,16.59,43.284c0.817,0.761,1.894,1.434,2.962,1.704
			c15.785,3.988,31.78,7.155,48.025,7.92c16.94,0.797,33.937,1.005,50.834-1.655c14.425-2.271,28.731-5.123,42.847-8.761
			c12.679-3.268,25.238-6.771,38.429-7.452c7.206-0.372,14.376-1.461,22.705-2.349c-5.607-2.067-10.484-2.213-15.148-2.612
			c-22.122-1.894-44.231-1.542-66.247,1.655c-1.667,0.242-4.018,0.644-4.323-1.204c-0.343-2.079,2.188-2.127,3.708-2.264
			c11.101-0.998,22.208-1.952,33.323-2.778c14.187-1.054,28.247,1.327,42.382,1.742c8.672,1.903,17.345,3.806,26.018,5.709
			c9.072,2.833,17.859,6.331,26.036,11.24c1.762,1.362,3.397,2.973,5.849,2.986c0.076,2.577,2.655,2.177,3.994,3.092
			c6.64,4.537,13.514,8.732,20.306,13.047c0.586,1.812,2.4,2.277,3.67,3.346c6.108,4.964,12.142,10.029,18.349,14.872
			c8.57,6.687,16.097,14.74,25.888,19.831c0.878,1.576,2.489,2.007,4.017,2.569c5.934,3.335,12.048,6.131,18.418,8.686
			c12.943,5.19,25.932,7.057,39.524,4.511c14.016-2.626,24.186-15.09,24.299-29.308C525.744,219.65,525.968,217.971,524.248,217.267
			z"/>
		<path id="Shoe__x28_Right_x29_" fill="#EB3335" d="M136.707,294.695c6.573-6.633,15.041-8.621,24.278-9.946
			c-8.564-7.239-12.541-21.119-27.853-17.559c-0.917,0.213-1.977-0.129-2.96-0.279c-1.548-0.235-2.645,0.078-2.691,1.926
			c-0.092,3.673-2.181,3.402-4.763,2.505c-14.049-4.878-28.455-7.824-43.392-7.534c-10.893,0.212-21.614,1.247-29.862,9.616
			c-6.095,6.184-5.171,11.717,2.673,15.111c12.877,5.572,26.829,6.941,40.361,9.975c7.917,1.775,16.233,1.208,23.903,4.135
			c3.648,1.392,7.864,5.32,10.452,4.369c2.772-1.018,4.137-6.286,6.753-9.278c0.184-0.21,0.125-0.633,0.179-0.956
			c-0.08-0.086-0.161-0.17-0.242-0.255c0.081,0.085,0.162,0.168,0.242,0.254C134.759,296.085,135.733,295.39,136.707,294.695z"/>
		<path id="Shoe__x28_Left_x29_" fill="#EB3335" d="M104.53,322.104c-4.831-2.438-9.578-4.945-14.843-6.531
			c-7.983-2.405-15.278-0.516-20.177,6.149c-1.211,1.647-2.609,1.024-4.029,0.896c-8.095-0.732-16.127-2.252-24.339-1.248
			c-9.524,1.164-19.344,1.083-28.046,5.801c-4.719,2.558-10.304,5.1-9.648,11.923c0.62,6.448,6.266,8.866,11.078,10.937
			c14.849,6.393,30.702,6.714,46.566,6.456c1.988-0.032,2.588-0.614,1.892-2.73c-1.079-3.28-1.912-6.665-2.514-10.065
			c-0.213-1.203-0.763-3.277,1.531-3.549c1.656-0.196,2.863,0.641,3.368,2.327c0.714,2.385,1.399,4.78,2.185,7.141
			c1.562,4.696,4.087,8.473,9.615,8.693c6.324,0.252,12.655,0.349,18.984,0.409c2.729,0.026,4.489-0.97,2.285-3.821
			c-4.964-6.419-4.254-13.262-1.837-20.301l0,0c1.835-0.775,2.054-2.66,2.851-4.149c1.83-0.794,3.49-1.788,4.374-3.7
			c1.575-0.373,3.655-0.333,3.709-2.529C107.577,322.509,105.651,322.67,104.53,322.104z M55.834,354.276
			c-1.128,0.134-1.865-0.373-2.2-1.485c-0.94-3.124-2.629-6.078-2.099-8.891c0-1.454-0.063-2.283,0.017-3.097
			c0.09-0.921-0.079-2.128,1.386-2.125c0.953,0.002,1.459,0.707,1.703,1.526c1.204,4.043,0.205,8.513,2.467,12.388
			C57.531,353.316,56.814,354.159,55.834,354.276z"/>
		<polygon id="Star" fill="#E73245" points="487.962,268.065 457.628,286.065 430.628,271.065 444.128,298.399 419.962,321.065 
			452.295,321.732 463.295,339.732 481.295,319.065 512.628,309.732 485.128,294.732 		"/>
		<path id="Trunk" fill="#E73245" d="M255.447,373.356c5.697-4.459,10.502-9.181,12.679-16.204
			c3.138-10.118,0.501-19.382-3.334-28.522c-3.229-7.694-7.582-14.708-14.138-20.093c-1.293-1.062-1.841-2.315-0.448-3.247
			c6.561-4.391,13.72-7.073,21.765-6.72c1.928,0.085,2.809,1.495,3.483,3.109c10.189,24.412,27.572,43.243,46.954,60.528
			c3.09,2.755,5.988,5.736,9.184,8.357c2.695,2.211,1.977,3.744-0.533,5.179c-13.489,7.711-28.059,9.386-43.187,7.441
			C276.801,381.76,266.16,378.716,255.447,373.356z"/>
	</g>
	<g id="Yellow">
		<path id="Leg__x28_Right_x29_" fill="#F7E933" d="M216.751,378.349c-19.097-0.48-36.468-11.022-51.333-26.605
			c-8.787-9.211-15.837-19.664-21.81-30.894c-1.367-2.57-1.336-4.549,0.467-6.77c2.093-2.579,4.036-5.283,5.971-7.986
			c0.927-1.296,2.487-2.776,0.509-4.27c-1.624-1.226-2.722,0.237-3.753,1.333c-2.506,2.664-4.834,5.541-8.014,7.453
			c-2.202,1.324-4.938,2.434-6.867,0.327c-1.727-1.887,0.164-4.06,1.374-5.822c6.187-9.004,14.583-14.476,25.582-15.403
			c5.025-0.424,9.71,0.576,12.343,5.594c0.503,0.959,1.483,2.082,0.847,3.243c-0.714,1.303-2.097,0.534-3.177,0.516
			c-1.825-0.031-3.649-0.341-5.469-0.305c-1.547,0.031-3.161,0.545-3.416,2.318c-0.277,1.931,1.354,2.454,2.84,2.844
			c6.593,1.73,13.103,3.692,19.33,6.514c7.033,3.188,13.475,7.156,18.661,13.032c1.737,1.968,1.879,3.526,0.485,5.708
			c-1.966,3.077-3.691,6.315-5.38,9.557c-0.766,1.47-1.475,3.345,0.298,4.492c1.856,1.201,3.029-0.531,4.159-1.699
			c0.924-0.954,1.848-1.938,2.59-3.032c5.882-8.669,13.948-14.007,24.119-16.501c6.597-1.618,12.446-4.801,16.604-10.402
			c1.489-2.005,2.665-1.971,4.307-0.269c9.512,9.858,16.182,21.196,17.204,35.097c0.881,11.97-5.578,21.004-18.091,26.454
			C239.876,376.033,228.196,378.387,216.751,378.349z"/>
		<path id="Leg__x28_Left_x29_" fill="#F7E933" d="M233.259,402.925c-9.02,0.434-25.953-4.703-42.929-9.444
			c-19.235-5.372-38.047-11.858-55.958-20.892c-10.518-5.305-17.473-12.49-17.117-25.031c0.048-1.692,0.045-4.355-2.423-4.135
			c-2.595,0.231-1.587,2.805-1.559,4.494c0.058,3.508,0.439,7.001,1.55,10.337c0.99,2.973-0.416,3.136-2.715,2.684
			c-5.837-1.147-12.642-9.175-13.449-15.93c-0.687-5.745,4.197-13.39,10.149-15.887c3.796-1.592,8.467,0.266,9.67,3.946
			c0.681,2.084,2,2.885,3.669,1.467c4.25-3.611,8.795-2.32,13.238-0.967c9.743,2.968,17.158,8.705,23.819,16.757
			c17.81,21.531,40.063,34.624,69.342,31.427c2.115-0.231,3.959,0.338,5.847,0.896c19.871,5.864,39.971,10.215,60.869,9.509
			c1.05-0.035,2.648-0.597,2.908,0.936c0.325,1.915-1.707,1.788-2.773,2.131C278.101,400.793,260.212,402.149,233.259,402.925z"/>
		<path id="Body" fill="#F7E933" d="M638.633,246.075c-6.744-4.49-9.987-10.881-10.57-18.865c-0.37-5.065,0.594-9.944,1.458-14.863
			c0.197-1.124,1.219-2.447-1.072-3.044c-6.474-1.688-12.764,2.682-12.759,9.316c0.004,5.872,1.179,11.566,3.557,16.985
			c0.538,1.227,1.025,2.835-0.438,3.573c-1.803,0.91-2.673-0.6-3.281-2.052c-2.535-6.054-3.972-12.358-3.959-18.929
			c0.011-5.721-0.691-6.505-6.408-6.834c-11.142-0.642-20.888,3.557-30.183,8.944c-3.381,1.96-6.269,2.603-9.682,0.442
			c-2.357-1.493-4.374-1.927-6.984,0.602c-2.382,2.309-5.956,3.17-9.68,3.149c-5.09-0.029-9.788-1.829-14.724-2.472
			c-2.822-0.367-4.008,0.042-4.545,3.394c-2.389,14.89-10.937,24.71-25.587,28.734c-7.806,2.144-15.829,2.11-23.806,0.928
			c-22.082-3.272-40.96-13.281-57.762-27.632c-13.544-11.568-27.216-22.98-41.917-33.08c-15.877-10.908-32.357-20.542-51.902-23.207
			c-11.682-1.593-23.29,0.346-34.878,1.365c-15.463,1.36-30.684,3.988-44.951,10.647c-23.247,10.85-28.534,31.573-13.105,51.893
			c8.046,10.596,18.039,19.027,28.94,26.572c4.754,3.291,8.482,3.522,13.206-0.086c6.642-5.073,13.993-9.248,22.523-10.123
			c3.899-0.4,4.455-2.421,4.391-5.499c-0.08-3.826-1.078-7.98,0.065-11.41c2.297-6.896-0.443-12.382-3.396-17.908
			c-3.302-6.177-6.749-12.412-14.571-14.006c-1.278-0.26-2.189-1.129-1.732-2.508c0.419-1.264,1.7-1.718,2.885-1.449
			c3.114,0.708,5.921,2.07,8.35,4.235c5.25,4.679,8.421,10.719,11.025,17.053c1.051,2.556,2.527,3.522,5.167,3.729
			c14.223,1.115,27.204-6.217,33.281-19.004c0.528-1.11,0.986-2.321,2.399-2.06c1.776,0.328,1.7,1.949,1.491,3.217
			c-0.533,3.249-2.596,5.729-4.625,8.15c-3.625,4.326-8.2,7.524-13.396,10.39c14.817,4.476,24.632,0.476,31.552-12.516
			c0.751-1.41,1.258-3.73,3.323-2.814c2.338,1.037,1.007,3.13,0.275,4.749c-5.273,11.651-13.789,16.779-26.642,16.041
			c-8.303-0.477-16.526-1.94-24.909-1.563c-4.475,0.201-6.405,2.456-6.534,6.466c-0.15,4.655-0.171,9.347,0.227,13.982
			c1.005,11.714,11.068,16.666,20.726,10.281c9.986-6.601,19.954-6.61,29.898-0.065c6.447,4.243,12.088,9.399,16.647,15.666
			c6.954,9.56,4.343,16.894-7.149,19.39c-3.068,0.666-4.841,2.023-6.451,4.652c-5.114,8.352-12.247,14.237-22.36,14.938
			c-10.704,0.742-20.635-1.571-28.583-9.514c-0.696-0.696-1.12-2.308-2.815-1.19c12.501,23.163,31.658,39.336,54.161,52.042
			c1.001,0.565,1.892,1.519,3.174,1.099c12.962-4.246,25.127-1.099,37.349,3.48c18.822,7.05,38.13,11.991,58.498,10.983
			c20.733-1.026,38.504-8.517,50.577-25.856c17.103-24.565,21.613-52.124,17.068-81.413c-0.229-1.474-1.851-3.551,0.605-4.248
			c2.33-0.661,3.016,1.573,3.381,3.343c0.571,2.765,0.922,5.577,1.311,8.377c0.824,5.937,0.548,11.947,0.913,18.075
			c0.793-0.273,1.053-0.671,1.29-1.082c0.498-0.861,1.022-1.71,1.47-2.596c5.636-11.152,6.608-22.872,4.322-35.013
			c-0.307-1.63-1.665-4.085,1.013-4.57c2.378-0.43,2.545,2.179,2.914,3.901c1.014,4.738,1.345,9.537,1.226,14.389
			c-0.241,9.842-3.345,18.85-8.325,27.841c3.481-0.086,5.996-1.28,8.555-2.4c9.23-4.042,16.723-10.606,24.339-16.934
			c5.389-4.479,10.099-9.672,13.576-15.837c0.939-1.665,2.126-2.916,3.919-1.722c1.595,1.061,0.738,2.717-0.07,4.006
			c-1.147,1.83-2.295,3.683-3.656,5.35c-2.878,3.525-5.896,6.937-9.179,10.773c2.854,0.627,5.112,0.467,7.39,0.188
			c14.266-1.746,26.121-8.607,36.739-17.765c4.352-3.754,8.438-7.425,14.606-7.597c1.498-0.042,3.298-0.273,4.327-1.726
			C640.206,246.754,639.279,246.506,638.633,246.075z M481.295,319.065l-18,20.667l-11-18l-32.333-0.667l24.167-22.667l-13.5-27.333
			l27,15l30.333-18l-2.833,26.667l27.5,15L481.295,319.065z"/>
	</g>
	<g id="Pink">
		<path id="Face" fill="#F3CDD5" d="M601.189,146.097c-6.526,10.152-15.604,15.857-26.746,17.968
			c-19.951,3.78-38.545-1.595-56.704-9.309c-2.383-1.012-1.483-2.126-0.799-3.699c2.049-4.709,2.8-9.564,0.792-14.511
			c-0.554-1.364-1.18-3.191-3.116-2.314c-2,0.906-0.235,2.299,0.126,3.343c3.573,10.34-3.641,21.043-14.698,21.646
			c-9.804,0.535-18.115-3.51-26.057-8.63c-5.482-3.534-9.715-1.528-10.493,5.095c-0.33,2.809-0.315,5.655,0.664,8.401
			c0.402,1.127,0.726,2.454,2.276,1.978c1.535-0.471,1.151-1.882,0.797-2.932c-0.878-2.605-1.136-5.306-0.443-7.876
			c0.708-2.628,1.978-4.587,5.282-2.14c3.737,2.767,7.911,4.886,12.262,6.604c1.05,0.415,2.258,0.607,2.688,1.964
			c4.765,15.025,16.771,23.515,28.935,31.767c10.784,7.316,22.643,12.506,34.825,17.03c1.542,0.573,4.323,0.662,4.126,2.892
			c-0.212,2.39-2.802,3.13-4.911,3.526c-8.83,1.659-17.208-0.539-25.379-3.523c-4.51-1.647-8.806-3.887-13.187-5.884
			c-5.472-2.494-11.242-3.074-17.095-2.245c-6.554,0.929-11.645,6.228-12.857,12.902c-0.325,1.788-0.599,3.584-0.903,5.413
			c-11.888-4.198-17.365-15.119-13.006-25.488c0.661-1.572,2.558-3.137,0.943-4.964c-1.868-2.113-4.449-1.315-6.528-0.534
			c-8.475,3.183-15.868,8.181-20.211,16.203c-2.56,4.728-3.879,2.881-5.97,0.253c-5.536-6.955-4.528-16.271,2.316-24.603
			c1.616-1.967,5.536-3.267,4.545-5.924c-1.26-3.378-5.485-2.41-8.48-2.792c-8.753-1.116-17.661,0.361-26.397-1.441
			c-4.08-0.842-8.061-1.91-12.449-4.722c6.729-0.766,12.784,0.111,18.638-1.294c3.454-0.829,6.777-1.799,9.146-4.64
			c1.082-1.297,2.01-2.863,1.427-4.583c-0.694-2.049-2.684-1.658-4.272-1.609c-4.325,0.133-8.645,0.443-12.969,0.616
			c-7.745,0.31-14.518-2.41-21.123-6.614c2.216-1.669,4.467-1.169,6.535-1.261c8.86-0.393,16.935-3.16,24.461-7.723
			c1.104-0.67,2.775-1.179,2.123-2.84c-0.595-1.517-2.071-1.008-3.456-0.862c-12.312,1.302-24.565,1.459-36.713-1.65
			c-34.672-8.875-43.514-41.718-32.903-67.795c11.635-28.596,40.602-38.599,69.445-24.438c12.96,6.363,24.164,14.959,34.183,25.233
			c1.162,1.192,2.321,2.389,3.526,3.538c0.87,0.83,1.889,1.598,3.006,0.485c0.977-0.974,0.054-1.636-0.524-2.474
			c-4.398-6.373-8.301-13.142-14.749-17.816c-0.656-0.476-1.586-0.871-1.334-1.867c0.279-1.103,1.309-1.292,2.304-1.49
			c10.752-2.144,21.511-3.328,32.561-2.59c11.411,0.762,22.489,2.401,33.36,6.149c26.954,9.293,43.316,27.927,49.174,55.569
			c1.472,6.948,4.945,11.403,10.8,14.52c3.365,1.792,6.812,3.462,10.328,4.932c3.635,1.52,5.885,1.676,6.745,7.947
			c0.659,4.804,5.592,6.369,9.785,7.915C596.655,145.579,598.695,145.653,601.189,146.097z M396.462,62.564
			c-3.146,0.274-6.32,0.368-9.432,0.855c-8.951,1.402-15.894,5.521-18.993,14.608c-0.521,1.526-0.86,2.98,0.82,3.936
			c1.868,1.062,2.708-0.333,3.474-1.676c0.411-0.721,0.66-1.543,1.117-2.23c6.33-9.515,20.939-15.463,30.247-1.135
			c3.877,5.968,3.355,8.627-3.062,11.597c-3.705,1.714-7.239,3.604-9.378,7.135c-2.796,4.616-3.549,9.622-1.232,14.699
			c2.062,4.518,5.916,6.543,10.691,7.057c2.037,0.219,3.864-0.451,4.419-2.435c0.681-2.434-1.658-2.512-3.119-2.932
			c-4.003-1.15-7.052-3.485-7.615-7.641c-0.612-4.514,1.957-7.868,5.441-10.543c5.841-4.484,12.191-5.943,19.21-3.226
			c2.253,0.872,4.837,1.282,5.107-1.618c0.037-7.262,1.11-7.717-3.982-16.283C413.887,66.424,406.451,62.547,396.462,62.564z
			 M517.572,85.249c-0.111-1.907-1.442-3.363-2.855-4.342c-4.505-3.12-8.817-5.433-15.151-4.664
			c-10.404,1.264-18.866,5.814-26.964,11.718c-1.057,0.77-2.891,1.832-1.419,3.552c1.244,1.453,2.309-0.19,3.42-0.709
			c3.13-1.461,5.874-3.888,9.467-4.196c9.965-0.854,19.966-3.999,29.873,0.569C515.348,87.826,517.383,88.022,517.572,85.249z
			 M479.298,123.178c-6.072,2.314-10.139-1.188-14.479-3.85c-1.064-0.652-1.892-3.093-3.57-1.131
			c-1.481,1.731-0.723,3.46,1.009,4.674c6.057,4.245,12.643,6.883,20.129,5.2c2.57-0.578,6.84-0.203,7.289-2.656
			c0.503-2.741-3.645-3.75-5.893-5.262c-4.653-3.129-8.261-6.627-7.612-12.88c0.236-2.279,1.575-3.95,2.402-5.906
			c0.629-1.487,0.36-3.117-1.23-3.857c-1.724-0.802-2.229,0.814-2.865,1.939C470.078,107.228,471.644,115.432,479.298,123.178z
			 M490.74,108.664c-0.005,5.117,3.961,9.405,8.794,9.511c2.646,0.058,8.772-6.689,8.927-9.834c0.174-3.527-3.966-7.845-7.595-7.922
			C496.173,100.32,490.743,104.741,490.74,108.664z"/>
		<path id="Inner_Mouth" fill="#F2708C" d="M537.989,167.857c-7.294,10.287-10.546,16.963,2.234,33.703
			c-7.956-2.147-13.744-6.563-17.575-13.219c-3.99-6.933,0.439-20.077,7.561-22.804C533.093,164.433,535.22,167.46,537.989,167.857z
			"/>
	</g>
	<g id="White">
		<path id="Hand_Right" fill="#FFFFFF" d="M353.98,278.166c1.74,1.43,3.86,2.26,4.95,4.64c4.05,8.86,2.56,14.22-6.33,21.49
			c-4.55,3.72-9.65,5.8-15.63,5.49c-9.98-0.56-18.89-3.45-25.02-12.03c-1.24-1.72-2.91-1.86-4.74-2.21
			c-9.15-1.76-16.75-6.23-22.68-13.45c-0.85-1.03-2.57-2.04-0.5-3.59c7.7-5.76,15.05-12.13,24.99-13.84
			c2.83-0.49,5.53-0.47,8.27,0.79c4.26,1.96,8.3,1.45,12.18-1.41c12.09-8.9,21.88-7.65,33.63,2.62c4.01,3.51,7.92,7.12,10.86,11.61
			c1.88,2.87,3.35,5.99,0.62,9.1c-3.13,3.57-7.71,2.64-9.21-2.08c-1.59-4.99-5.14-7.99-9.25-10.6c-1.2-0.76-2.68-1.99-3.86-0.07
			C351.14,276.466,352.85,277.236,353.98,278.166z"/>
		<path id="Hand__x28_Left_x29__Palm" fill="#FFFFFF" d="M665.05,246.966c-9.98,2.12-27.15-2.15-31.08-12.54
			c-1.47-3.91-1.65-7.82-1.32-11.77c1.02-12.51,3.67-24.56,10.48-35.41c2.79-4.47,6.53-6.49,11.72-5.62
			c2.62,0.44,5.24,0.94,7.8,1.63c2.87,0.78,6.37,1.09,8.33,2.94c2.1,1.98-0.63,5.14-0.75,7.89c-0.24,5.33,1.21,10.16,3.55,15.3
			c-7.28,0.01-11.03-2.7-12.76-9.07c-0.59-2.18-1.13-4.78-3.77-4.37c-2.55,0.39-2.49,3.15-2.57,5.35c-0.21,5.43,3.08,8.54,7.37,10.9
			c1.73,0.95,3.61,1.63,5.72,2.57c-4.73,4.62-9.97,9.06-8.62,16.37c1.36,7.36,8.85,8.28,13.88,11.9
			C670.88,245.576,667.97,246.346,665.05,246.966z"/>
		<path id="Hand__x28_Left_x29__Fingers" fill="#FFFFFF" d="M705.54,215.166c-1.15,6.76-3.63,13.06-6.69,19.22
			c-1.94,3.92-4.48,5.97-8.99,5.36c-6.78-0.98-13.84-0.81-20.43-3.45c-7.22-2.9-8.5-8.01-3.4-13.98c2.85-3.33,6.13-6.22,10.71-6.71
			c4.06-0.44,4.38-2.16,2.35-5.24c-3.59-5.45-5.26-11.36-4.49-17.97c0.58-4.91,3.13-7.72,7.85-9.01c5.01-1.38,9.93-3.22,14.48,1.09
			C705.93,192.986,707.51,203.626,705.54,215.166z"/>
	</g>
</g>
<g id="Outline">
	<path id="Rest_of_the_body" fill="#2C1F1B" d="M708.242,195.46c-6.315-16.846-15.312-22.06-31.383-14.119
		c-2.136,1.055-3.851,1.092-6.078,0.239c-5.598-2.145-11.396-3.628-17.415-4.164c-5.53-0.493-9.668,1.74-12.86,6.1
		c-3.379,4.615-6.088,9.675-7.334,15.181c-1.169,5.166-3.405,7.671-8.875,6.738c-1.057-0.18-2.379,0.213-3.362,0.743
		c-4.503,2.427-8.884,3.038-14.02,1.438c-3.877-1.208-8.246-0.547-12.362,0.449c-7.815,1.892-15.187,4.846-22.116,8.918
		c-2.982,1.752-8.957-0.167-8.475-2.878c0.667-3.757-1.666-4.179-4.021-5.024c-8.851-3.178-16.231-8.299-21.549-16.194
		c-2.619-3.888-3.779-8.072-2.952-12.742c1.3-7.341,7.91-13.675,13.544-12.419c28.128,6.271,47.411-7.98,64.27-27.638
		c3.958-4.615,2.823-9.708-2.459-12.578c-7.171-3.897-14.567-4.314-21.78,0.091c-1.424,0.87-2.423,1.839-4.408,0.916
		c-5.41-2.518-11.057-4.488-16.223-7.58c-4.588-2.746-6.935-6.443-8.064-11.824c-4.385-20.906-14.862-37.849-33.58-49.099
		c-2.841-1.708-3.339-1.865-3.077-7.954c0.036-0.84,0.17-1.514,0.13-2.926c-0.151-5.35-1.66-10.858-4.042-15.494
		c-5.302-10.32-13.182-18.629-23.214-24.703C480.42-0.821,462.814-1.34,445.007,1.509c-8.122,1.299-16.452,2.857-23.581,7.774
		c-12.4,8.553-16.308,16.432-13.438,27.702c0.753,1.289,0.278,1.57-0.987,1.201c-13.743-3.88-27.233-4.192-40.112,3.049
		c-15.762,8.862-24.172,22.814-27.255,40.224c-0.548,3.093-1.287,3.615-3.993,2.202c-5.44-2.842-11.108-5.267-16.457-8.264
		c-30.104-16.866-57.831-37.23-85.127-58.209c-9.02-6.933-9.174-7.234-17.303,0.708c-3.933,3.842-6.97,5.303-11.265,0.796
		c-2.032-2.132-4.79-3.569-7.204-5.342c-9.871-7.25-10.031-7.384-17.843,2.247c-13.916,17.155-24.519,35.881-26.74,58.444
		c-0.708,7.193-0.743,7.396,6.075,9.423c15.879,4.72,31.764,9.417,47.647,14.124c3.316-0.1,6.064,1.842,10.602,2.451
		c-4.922,0.678-8.122-0.384-11.299-1.563c-0.827-0.03-1.679,0.051-2.483-0.107c-16.3-3.217-32.573-6.575-48.897-9.663
		c-12.821-2.426-9.768-3.237-16.473,6.405c-7.483,10.761-7.96,11.089-20.183,5.504c-2.394-1.094-4.751-2.455-6.775-4.118
		c-1.976-1.624-3.216-1.429-4.307,0.68c-4.352,8.417-10.16,16.006-13.973,24.732c-10.306,23.582-2.767,42.391,14.873,57.986
		c1.003,0.887,2.19,1.376,3.537,1.711c37.145,9.221,74.536,11.535,112.298,4.179c4.668-0.909,9.37-1.644,14.056-2.46
		c-0.661,1.612-1.535,2.329-2.398,3.058c-15.092,12.75-17.721,29.034-7.274,45.849c7.044,11.338,16.334,20.628,27.229,28.203
		c8.047,5.594,16.48,10.659,21.551,19.452c1.107,1.919,4.686,3.568,2.747,5.921c-2.747,3.335-3.003,9.184-9.909,8.842
		c-7.896-0.391-16.114,1.382-21.828,7.009c-4.692,4.621-9.396,4.443-14.767,3.725c-19.761-2.643-26.373-8.059-29.55-24.102
		c-0.192-0.971-0.533-1.915-0.835-2.862c-3.165-9.923-12.692-17.447-22.913-18.058c-1.059-0.063-2.551-0.653-2.905,0.924
		c-0.34,1.515,1.035,1.971,2.186,2.121c13.525,1.753,20.033,10.248,22.671,22.912c2.356,11.309,9.909,17.531,20.857,20.343
		c5.378,1.381,10.932,1.695,17.371,2.714c-9.528,10.627-24.353,8.528-33.412,18.47c-0.799-4.252-2.786-6.615-5.068-8.843
		c-6.293-6.146-13.631-10.612-21.838-13.652c-2.674-0.991-4.303-1.891-3.948-5.524c0.372-3.802-1.092-8.177-4.573-9.995
		c-5.665-2.959-8.51-8.219-12.476-12.603c-2.441-2.699-6.449-4.519-7.75-7.584c-1.884-4.437-5.153-5.448-8.883-6.013
		c-7.892-1.195-15.841-2.018-23.764-3.012c-1.878-0.235-3.919-0.442-4.9,1.485c-1.309,2.572-2.922,2.284-5.314,1.684
		c-10.872-2.729-21.951-4.094-33.158-3.359c-9.894,0.648-19.61,2.471-27.321,9.358c-8.963,8.004-7.587,16.812,3.185,22.076
		c1.932,0.944,3.926,1.889,5.999,2.393c13.401,3.261,26.809,6.558,40.512,8.308c11.607,1.482,23.106,3.02,31.793,12.133
		c0.599,0.629,1.897,1.118,2.703,0.935c4.364-0.992,5.531,1.531,6.838,5.022c1.565,4.179,4.059,8.01,6.544,12.74
		c-5.822-2.549-10.75-5.192-16.065-4.963c-5.87,0.252-10.482-2.048-15.152-4.862c-14.819-8.93-30.183-15.457-48.091-11.062
		c-2.706,0.664-5.921,0.276-7.491,3.154c-1.427,2.615-3.443,2.311-5.879,2.313c-15.164,0.014-30.362,0.176-44.195,7.717
		c-5.059,2.758-8.806,6.851-8.928,12.919c-0.123,6.122,4.186,9.48,8.988,12.166c7.791,4.359,16.31,6.423,25.056,7.751
		c14.587,2.216,29.492-0.399,44.012,3.035c11.377,2.691,23.496-2.241,34.664,3.221c0.805,0.394,1.982,0.244,2.934,0.069
		c1.307-0.24,2.115,0.149,3.019,1.125c6.371,6.876,14.527,11.151,23.013,14.531c38.898,15.495,77.926,30.213,121.209,25.106
		c19.037-2.246,37.448-6.071,54.408-15.298c7.117-3.872,13.906-8.289,20.718-12.694c7.323-4.736,16.087-7.042,22.773-13.039
		c2.508-2.25,4.733-5.455,8.126-5.957c10.172-1.505,20.038-0.469,29.815,3.397c19.61,7.754,39.84,13.064,61.196,12.574
		c20.249-0.465,37.876-7.179,51.63-22.423c11.71-12.98,17.905-28.645,20.957-45.654c0.839-4.674,3.194-7.777,7.806-9.181
		c6.733-2.049,13.088-5.128,18.731-9.187c7.78-5.596,15.415-9.328,25.678-9.532c15.749-0.313,28.614-9.049,40.143-19.252
		c3.503-3.1,7.342-4.433,11.672-5.873c7.585-2.522,14.926-3.36,22.747-2.012c3.458,0.596,7.261,0.029,10.163-1.87
		c6.049-3.958,12.618-3.563,19.212-3.185c4.712,0.27,7.957-1.747,10.478-5.441c4.167-6.108,7.044-12.785,8.917-19.923
		C710.305,212.531,711.365,203.789,708.242,195.46z M540.223,201.56c-7.956-2.147-13.744-6.563-17.575-13.219
		c-3.99-6.933,0.439-20.077,7.561-22.804c2.884-1.104,5.011,1.923,7.78,2.32C530.695,178.144,527.443,184.82,540.223,201.56z
		 M346.227,69.563c11.635-28.596,40.602-38.599,69.445-24.438c12.96,6.363,24.164,14.959,34.183,25.233
		c1.162,1.192,2.321,2.389,3.526,3.538c0.87,0.83,1.889,1.598,3.006,0.485c0.977-0.974,0.054-1.635-0.524-2.474
		c-4.398-6.373-8.301-13.142-14.749-17.816c-0.656-0.476-1.586-0.871-1.334-1.867c0.279-1.103,1.309-1.292,2.304-1.49
		c10.752-2.144,21.511-3.328,32.561-2.59c11.411,0.762,22.489,2.401,33.36,6.149c26.954,9.293,43.316,27.927,49.174,55.569
		c1.472,6.948,4.945,11.403,10.8,14.52c3.365,1.792,6.812,3.462,10.328,4.933c3.635,1.52,6.074,1.977,6.745,7.947
		c0.541,4.818,5.443,6.859,9.785,7.915c2.551,0.621,3.86,0.745,6.354,1.189c-6.526,10.152-15.604,15.857-26.746,17.968
		c-19.951,3.78-38.545-1.595-56.704-9.309c-2.383-1.012-1.483-2.126-0.799-3.699c2.049-4.709,2.8-9.564,0.792-14.511
		c-0.554-1.364-1.18-3.191-3.116-2.314c-2,0.906-0.235,2.299,0.126,3.343c3.573,10.34-3.641,21.043-14.698,21.646
		c-9.804,0.535-18.115-3.51-26.057-8.63c-5.482-3.534-9.715-1.528-10.493,5.095c-0.33,2.81-0.315,5.655,0.664,8.401
		c0.402,1.127,0.726,2.454,2.276,1.978c1.535-0.471,1.151-1.882,0.797-2.932c-0.878-2.605-1.136-5.306-0.443-7.876
		c0.708-2.628,1.978-4.587,5.282-2.14c3.737,2.767,7.911,4.886,12.262,6.604c1.05,0.415,2.258,0.607,2.688,1.964
		c4.765,15.025,16.771,23.515,28.935,31.767c10.784,7.316,22.643,12.506,34.825,17.03c1.542,0.573,4.323,0.662,4.126,2.892
		c-0.212,2.39-2.802,3.13-4.911,3.526c-8.83,1.659-17.208-0.539-25.379-3.523c-4.51-1.647-8.806-3.887-13.187-5.884
		c-5.472-2.494-11.242-3.074-17.095-2.245c-6.554,0.929-11.645,6.228-12.857,12.902c-0.325,1.787-0.599,3.584-0.903,5.413
		c-11.888-4.198-17.365-15.119-13.006-25.488c0.661-1.572,2.558-3.137,0.943-4.964c-1.868-2.113-4.449-1.315-6.528-0.534
		c-8.475,3.183-15.868,8.181-20.211,16.203c-2.56,4.728-3.879,2.88-5.97,0.253c-5.536-6.955-4.528-16.271,2.316-24.603
		c1.616-1.967,5.536-3.267,4.545-5.924c-1.26-3.378-5.485-2.41-8.48-2.792c-8.753-1.116-17.661,0.361-26.397-1.441
		c-4.08-0.842-8.061-1.91-12.449-4.722c6.729-0.766,12.784,0.111,18.638-1.294c3.454-0.829,6.777-1.799,9.146-4.64
		c1.082-1.297,2.01-2.863,1.427-4.583c-0.694-2.049-2.684-1.658-4.272-1.609c-4.325,0.133-8.645,0.443-12.969,0.616
		c-7.745,0.31-14.518-2.41-21.123-6.614c2.216-1.669,4.467-1.169,6.535-1.261c8.86-0.393,16.935-3.16,24.461-7.723
		c1.104-0.67,2.775-1.179,2.123-2.84c-0.595-1.517-2.071-1.008-3.456-0.862c-12.312,1.302-24.565,1.459-36.713-1.65
		C344.458,128.482,335.617,95.64,346.227,69.563z M173.674,84.401c-3.329-0.936-6.546-2.478-9.927-2.979
		c-6.159-0.912-7.035-4.504-6.388-9.84c1.833-15.12,7.783-28.454,17.017-41.783c0.816,7.433,1.326,13.615,0.119,19.851
		c-0.472,2.438-0.554,4.95-0.932,7.41c-0.729,4.743,1.846,7.151,5.745,9.114c4.753,2.392,10.002,2.256,14.967,3.523
		c8.701,2.22,16.843,5.905,25.208,9.009c1.446-0.544,4.547,1.831,3.981-2.259c-10.166-3.99-20.307-8.049-30.518-11.922
		c-2.499-0.948-2.047-2.599-1.814-4.428c1.133-8.893,6.047-16.003,10.987-23.061c5.864-8.378,14.258-14.233,21.508-21.231
		c2.253-2.175,3.514,0.428,4.521,1.148c7.802,5.568,15.35,11.491,23.029,17.235c18.02,13.48,36.425,26.408,55.77,37.931
		c9.188,5.473,18.346,11.041,28.415,14.878c2.026,0.772,3.266,2.199,3.381,4.881c0.628,14.629,5.552,27.496,16.961,37.16
		c7.199,6.098,15.587,10.16,24.754,12.527c6.329,1.46,12.789,1.008,19.197,1.316c1.805,0.087,3.606,0.24,5.409,0.363
		c0.776-0.159,1.553-0.318,3.023-0.619c-4.818,3.235-9.957,3.979-21.043,5.679c-6.717,1.03-11.91-1.324-17.044-4.524
		c-11.218-6.992-23.68-10.961-36.036-15.155c-16.484-5.596-33.504-9.375-50.172-14.331c-16.515-4.91-33.326-8.648-49.91-13.292
		C213.84,95.392,193.715,90.038,173.674,84.401z M211.689,184.608c-16.897,2.66-33.894,2.453-50.834,1.655
		c-16.245-0.765-32.24-3.931-48.025-7.92c-1.068-0.27-2.146-0.943-2.962-1.704c-12.571-11.716-20.287-25.286-16.59-43.284
		c0.942-4.584,3.477-8.46,5.241-13.012c1.871,11.334,8.668,19.216,17.096,26.004l-0.036-0.03c8.036,5.268,17.344,5.527,26.337,5.807
		c28.637,0.893,57.268-0.01,85.868-1.698c1.222-0.072,3.326,0.309,3.055-1.507c-0.315-2.107-2.716-1.704-4.214-1.581
		c-11.626,0.959-23.275,1.069-34.924,1.116c-14.994,0.062-29.989-0.012-44.984,0.005c-6.264,0.007-12.118-1.848-18.007-3.676
		c-2.898-0.9-3.989-2.616-3.672-5.572c1.201-11.19,5.121-21.349,10.718-31.089c3.005-5.228,5.104-10.949,8.957-15.753
		c1.255-1.564,2.328-2.055,4.157-1.683c18.03,3.668,36.056,7.356,54.104,10.932c18.18,3.602,36.326,7.426,54.592,10.534
		c25.067,4.265,49.223,11.844,73.447,19.218c15.713,4.784,30.665,11.252,45.068,19.307c11.172,6.248,22.584,13.05,36.513,10.664
		c2.316-0.397,4.816-1.562,7.58,0.339c-1.84,2.715-4.669,3.428-7.466,3.94c-6.431,1.176-12.937,0.754-19.424,0.606
		c-1.442-0.033-3.36-0.766-4.071,0.857c-0.836,1.907,1.167,2.918,2.343,3.923c5.915,5.052,13.173,6.752,20.607,7.38
		c7.449,0.629,14.959,0.536,22.439,0.825c0.894,0.034,2.175-0.287,2.552,0.926c0.364,1.171-0.829,1.574-1.468,2.3
		c-8.062,9.159-9.701,23.006,0.402,31.727c3.403,2.938,5.289,2.483,7.195-1.175c3.624-6.954,8.913-12.128,16.182-15.279
		c1.203-0.522,2.311-1.771,3.588-1.065c1.483,0.821,0.684,2.49,0.381,3.633c-3.438,12.997,5.928,22.257,15.365,26.904
		c3.211,1.581,4.53,1.277,5.013-2.28c0.268-1.97,0.8-3.906,1.234-5.852c1.623-7.267,5.814-10.685,13.227-10.592
		c9.593,0.12,17.498,5.34,25.974,8.807c1.72,0.704,1.496,2.383,1.484,3.897c-0.114,14.218-10.283,26.682-24.299,29.308
		c-13.592,2.546-26.58,0.68-39.524-4.511c-6.37-2.554-12.484-5.351-18.418-8.687c-1.527-0.561-3.138-0.991-4.016-2.568
		c-9.791-5.091-17.319-13.144-25.888-19.831c-6.207-4.843-12.241-9.909-18.352-14.875c-1.266-1.066-3.081-1.531-3.667-3.343
		c-6.792-4.315-13.666-8.509-20.306-13.047c-1.339-0.915-3.918-0.515-3.996-3.093c-2.451-0.012-4.086-1.623-5.848-2.985
		c-8.177-4.909-16.964-8.406-26.037-11.24c-8.672-1.903-17.345-3.806-26.017-5.708c-14.135-0.415-28.195-2.797-42.382-1.742
		c-11.115,0.826-22.222,1.78-33.323,2.778c-1.52,0.137-4.051,0.185-3.708,2.264c0.305,1.848,2.656,1.446,4.323,1.204
		c22.016-3.197,44.125-3.549,66.247-1.655c4.663,0.399,9.541,0.545,15.148,2.612c-8.329,0.888-15.499,1.977-22.705,2.349
		c-13.19,0.682-25.749,4.185-38.429,7.452C240.419,179.485,226.113,182.337,211.689,184.608z M126.853,307.015
		c-2.588,0.951-6.805-2.977-10.452-4.369c-7.67-2.926-15.985-2.36-23.903-4.135c-13.531-3.034-27.483-4.403-40.361-9.975
		c-7.845-3.394-8.768-8.927-2.673-15.111c8.248-8.369,18.969-9.404,29.862-9.616c14.938-0.29,29.343,2.656,43.392,7.534
		c2.582,0.897,4.671,1.168,4.763-2.505c0.046-1.848,1.143-2.162,2.691-1.926c0.983,0.15,2.044,0.492,2.96,0.279
		c15.312-3.56,19.289,10.32,27.853,17.559c-9.237,1.325-17.705,3.313-24.278,9.946c-0.974,0.695-1.948,1.389-2.922,2.084
		c-0.054,0.324,0.005,0.747-0.179,0.957C130.989,300.729,129.625,305.996,126.853,307.015z M143.609,320.85
		c-1.367-2.57-1.336-4.549,0.467-6.77c2.093-2.579,4.036-5.283,5.971-7.986c0.927-1.296,2.487-2.776,0.509-4.27
		c-1.624-1.226-2.722,0.237-3.753,1.333c-2.506,2.664-4.834,5.541-8.014,7.453c-2.202,1.324-4.938,2.434-6.867,0.327
		c-1.727-1.887,0.164-4.06,1.374-5.822c6.187-9.004,14.583-14.476,25.582-15.403c5.025-0.424,9.71,0.576,12.343,5.594
		c0.503,0.959,1.484,2.082,0.847,3.243c-0.714,1.304-2.097,0.534-3.177,0.516c-1.825-0.031-3.649-0.341-5.469-0.305
		c-1.547,0.031-3.161,0.545-3.416,2.318c-0.277,1.931,1.354,2.454,2.84,2.844c6.593,1.73,13.103,3.692,19.33,6.514
		c7.033,3.188,13.475,7.156,18.661,13.032c1.737,1.968,1.879,3.526,0.485,5.708c-1.966,3.077-3.691,6.315-5.38,9.557
		c-0.766,1.47-1.475,3.345,0.298,4.492c1.856,1.201,3.029-0.531,4.159-1.699c0.924-0.954,1.848-1.938,2.59-3.032
		c5.882-8.669,13.948-14.007,24.119-16.501c6.597-1.618,12.446-4.801,16.604-10.402c1.489-2.005,2.665-1.971,4.307-0.269
		c9.512,9.858,16.182,21.196,17.204,35.097c0.88,11.97-5.578,21.004-18.091,26.454c-7.256,3.16-18.936,5.515-30.38,5.476
		c-19.097-0.48-36.468-11.022-51.333-26.605C156.632,342.533,149.582,332.08,143.609,320.85z M96.153,358.713
		c-6.329-0.06-12.661-0.157-18.984-0.409c-5.528-0.22-8.053-3.997-9.615-8.693c-0.786-2.361-1.471-4.756-2.185-7.141
		c-0.505-1.686-1.712-2.524-3.368-2.327c-2.294,0.272-1.744,2.345-1.531,3.549c0.602,3.4,1.435,6.785,2.514,10.065
		c0.696,2.116,0.096,2.698-1.892,2.73c-15.864,0.258-31.717-0.063-46.566-6.456c-4.811-2.071-10.458-4.489-11.078-10.937
		c-0.656-6.823,4.93-9.365,9.648-11.923c8.701-4.718,18.521-4.636,28.046-5.801c8.211-1.004,16.243,0.516,24.339,1.248
		c1.42,0.129,2.819,0.752,4.029-0.896c4.898-6.665,12.194-8.554,20.177-6.149c5.265,1.586,10.013,4.093,14.843,6.531
		c1.121,0.566,3.047,0.405,3.005,2.109c-0.054,2.195-2.134,2.156-3.709,2.529c-0.884,1.912-2.544,2.906-4.374,3.7
		c-0.797,1.488-1.017,3.374-2.851,4.149c-2.417,7.039-3.127,13.882,1.837,20.301C100.642,357.742,98.882,358.739,96.153,358.713z
		 M295.397,395.226c-17.296,5.568-35.185,6.923-62.138,7.7c-9.02,0.434-25.953-4.703-42.929-9.444
		c-19.235-5.372-38.047-11.858-55.958-20.892c-10.518-5.305-17.473-12.49-17.117-25.031c0.048-1.692,0.045-4.354-2.423-4.135
		c-2.595,0.231-1.587,2.805-1.559,4.494c0.058,3.508,0.439,7.001,1.55,10.337c0.99,2.973-0.416,3.136-2.715,2.684
		c-5.837-1.147-12.642-9.175-13.449-15.93c-0.687-5.745,4.197-13.39,10.149-15.887c3.796-1.592,8.467,0.266,9.669,3.946
		c0.681,2.084,2,2.885,3.669,1.467c4.25-3.611,8.795-2.32,13.238-0.967c9.743,2.968,17.158,8.705,23.819,16.757
		c17.81,21.531,40.063,34.624,69.342,31.427c2.115-0.231,3.959,0.338,5.847,0.896c19.871,5.864,39.971,10.215,60.869,9.509
		c1.05-0.035,2.648-0.597,2.908,0.936C298.494,395.009,296.463,394.882,295.397,395.226z M331.059,375.742
		c-13.489,7.711-28.059,9.386-43.187,7.441c-11.07-1.423-21.712-4.467-32.424-9.827c5.697-4.459,10.502-9.181,12.679-16.204
		c3.138-10.118,0.501-19.382-3.334-28.522c-3.229-7.694-7.582-14.708-14.138-20.093c-1.293-1.062-1.841-2.315-0.448-3.247
		c6.561-4.391,13.72-7.073,21.765-6.72c1.928,0.085,2.809,1.495,3.483,3.109c10.189,24.412,27.572,43.243,46.954,60.528
		c3.09,2.755,5.988,5.736,9.184,8.357C334.287,372.775,333.569,374.308,331.059,375.742z M353.717,278.118
		c1.746,1.436,3.862,2.267,4.951,4.647c4.052,8.855,2.56,14.219-6.327,21.49c-4.545,3.719-9.644,5.801-15.625,5.491
		c-9.98-0.565-18.894-3.457-25.03-12.031c-1.233-1.723-2.909-1.863-4.738-2.214c-9.146-1.759-16.746-6.229-22.675-13.444
		c-0.853-1.039-2.569-2.044-0.5-3.591c7.699-5.758,15.05-12.135,24.99-13.843c2.824-0.485,5.528-0.467,8.269,0.793
		c4.255,1.957,8.302,1.447,12.184-1.411c12.089-8.899,21.874-7.652,33.622,2.617c4.013,3.508,7.926,7.122,10.869,11.612
		c1.88,2.868,3.348,5.988,0.616,9.102c-3.128,3.565-7.707,2.634-9.211-2.079c-1.594-4.993-5.139-7.99-9.253-10.6
		c-1.196-0.758-2.679-1.997-3.853-0.072C350.885,276.422,352.596,277.196,353.717,278.118z M635.828,249.675
		c-6.168,0.172-10.253,3.843-14.606,7.597c-10.618,9.158-22.473,16.02-36.739,17.765c-2.277,0.279-4.536,0.439-7.39-0.188
		c3.283-3.835,6.3-7.247,9.179-10.773c1.362-1.668,2.51-3.52,3.656-5.35c0.808-1.289,1.665-2.945,0.07-4.006
		c-1.792-1.193-2.98,0.058-3.919,1.722c-3.477,6.165-8.187,11.358-13.576,15.837c-7.616,6.329-15.108,12.892-24.339,16.934
		c-2.558,1.12-5.074,2.314-8.555,2.4c4.98-8.991,8.084-18,8.325-27.841c0.119-4.852-0.212-9.651-1.226-14.389
		c-0.369-1.722-0.536-4.331-2.914-3.901c-2.678,0.484-1.32,2.94-1.013,4.57c2.286,12.141,1.314,23.861-4.322,35.013
		c-0.448,0.887-0.972,1.735-1.47,2.596c-0.238,0.411-0.498,0.809-1.29,1.082c-0.364-6.128-0.088-12.138-0.913-18.075
		c-0.389-2.8-0.74-5.612-1.311-8.377c-0.366-1.77-1.051-4.004-3.381-3.343c-2.456,0.697-0.833,2.774-0.605,4.248
		c4.545,29.289,0.035,56.849-17.068,81.413c-12.072,17.339-29.844,24.83-50.577,25.856c-20.369,1.008-39.677-3.933-58.498-10.983
		c-12.222-4.578-24.388-7.726-37.349-3.48c-1.282,0.42-2.173-0.534-3.174-1.099c-22.503-12.706-41.66-28.879-54.161-52.042
		c1.695-1.118,2.119,0.494,2.815,1.19c7.948,7.943,17.879,10.256,28.583,9.514c10.113-0.701,17.246-6.586,22.36-14.938
		c1.61-2.629,3.383-3.986,6.451-4.652c11.492-2.496,14.103-9.829,7.149-19.39c-4.559-6.267-10.2-11.423-16.647-15.666
		c-9.944-6.544-19.912-6.536-29.898,0.065c-9.658,6.385-19.721,1.433-20.726-10.281c-0.398-4.635-0.377-9.326-0.227-13.982
		c0.129-4.009,2.059-6.265,6.534-6.466c8.383-0.377,16.606,1.087,24.909,1.563c12.853,0.738,21.368-4.39,26.642-16.041
		c0.732-1.618,2.063-3.711-0.275-4.749c-2.065-0.916-2.572,1.405-3.323,2.814c-6.92,12.993-16.736,16.992-31.552,12.516
		c5.197-2.866,9.771-6.065,13.396-10.39c2.029-2.421,4.092-4.901,4.625-8.15c0.208-1.268,0.284-2.889-1.491-3.217
		c-1.413-0.261-1.871,0.949-2.399,2.06c-6.078,12.787-19.059,20.119-33.281,19.004c-2.64-0.207-4.117-1.173-5.167-3.729
		c-2.603-6.334-5.774-12.374-11.025-17.053c-2.429-2.165-5.236-3.527-8.35-4.235c-1.185-0.269-2.466,0.185-2.885,1.449
		c-0.457,1.379,0.454,2.247,1.732,2.508c7.821,1.594,11.268,7.829,14.571,14.006c2.954,5.525,5.694,11.012,3.396,17.908
		c-1.143,3.431-0.145,7.585-0.065,11.41c0.064,3.078-0.492,5.099-4.391,5.499c-8.53,0.875-15.88,5.05-22.523,10.123
		c-4.724,3.608-8.452,3.377-13.206,0.086c-10.901-7.545-20.894-15.976-28.94-26.572c-15.429-20.32-10.142-41.043,13.105-51.893
		c14.267-6.658,29.488-9.287,44.951-10.647c11.588-1.019,23.195-2.958,34.878-1.365c19.545,2.665,36.024,12.298,51.902,23.207
		c14.701,10.1,28.373,21.512,41.917,33.08c16.802,14.351,35.68,24.359,57.762,27.632c7.976,1.182,16,1.216,23.806-0.928
		c14.651-4.025,23.198-13.844,25.587-28.734c0.538-3.352,1.723-3.761,4.545-3.394c4.935,0.643,9.633,2.443,14.724,2.472
		c3.723,0.021,7.297-0.84,9.68-3.149c2.61-2.529,4.627-2.095,6.984-0.602c3.412,2.161,6.3,1.518,9.682-0.442
		c9.295-5.387,19.042-9.586,30.183-8.944c5.717,0.329,6.419,1.113,6.408,6.834c-0.013,6.572,1.424,12.875,3.959,18.929
		c0.608,1.453,1.478,2.963,3.281,2.052c1.463-0.739,0.976-2.347,0.438-3.573c-2.378-5.419-3.553-11.113-3.557-16.985
		c-0.005-6.634,6.286-11.003,12.759-9.316c2.29,0.597,1.269,1.92,1.072,3.044c-0.864,4.919-1.828,9.798-1.458,14.863
		c0.584,7.984,3.827,14.374,10.57,18.865c0.646,0.43,1.574,0.679,1.522,1.873C639.126,249.402,637.327,249.633,635.828,249.675z
		 M664.797,246.919c-9.989,2.12-27.157-2.15-31.08-12.535c-1.478-3.913-1.654-7.826-1.329-11.771
		c1.027-12.51,3.674-24.563,10.48-35.413c2.799-4.463,6.534-6.486,11.727-5.613c2.616,0.44,5.237,0.931,7.794,1.626
		c2.877,0.782,6.372,1.091,8.336,2.943c2.096,1.978-0.633,5.141-0.756,7.888c-0.239,5.332,1.21,10.16,3.553,15.295
		c-7.279,0.016-11.033-2.696-12.762-9.071c-0.589-2.172-1.131-4.779-3.77-4.369c-2.549,0.396-2.487,3.154-2.571,5.348
		c-0.208,5.439,3.082,8.545,7.37,10.905c1.731,0.953,3.612,1.632,5.728,2.57c-4.737,4.62-9.976,9.057-8.623,16.372
		c1.361,7.361,8.851,8.278,13.875,11.895C670.622,245.529,667.713,246.3,664.797,246.919z M705.284,215.125
		c-1.15,6.753-3.629,13.06-6.687,19.213c-1.949,3.92-4.49,5.977-8.994,5.367c-6.777-0.984-13.846-0.809-20.434-3.451
		c-7.222-2.896-8.499-8.011-3.393-13.98c2.849-3.332,6.123-6.219,10.711-6.714c4.051-0.437,4.371-2.156,2.341-5.241
		c-3.586-5.447-5.252-11.36-4.482-17.962c0.574-4.918,3.124-7.72,7.845-9.016c5.011-1.375,9.933-3.214,14.482,1.09
		C705.675,192.946,707.251,203.579,705.284,215.125z"/>
	<g id="Non_connected">
		<path id="Ear" fill="#2C1F1B" d="M368.857,81.963c1.868,1.062,2.708-0.333,3.474-1.676c0.411-0.721,0.66-1.543,1.117-2.23
			c6.33-9.516,20.939-15.463,30.247-1.135c3.877,5.968,3.355,8.627-3.062,11.596c-3.705,1.714-7.239,3.604-9.378,7.135
			c-2.796,4.616-3.549,9.622-1.232,14.699c2.062,4.518,5.916,6.543,10.691,7.057c2.037,0.219,3.864-0.451,4.419-2.435
			c0.681-2.434-1.658-2.512-3.119-2.932c-4.003-1.15-7.052-3.485-7.615-7.641c-0.612-4.513,1.957-7.868,5.441-10.543
			c5.841-4.484,12.191-5.943,19.21-3.226c2.253,0.872,4.837,1.282,5.107-1.618c0.54-5.791,0.572-10.046-3.982-16.283
			c-5.1-6.984-13.635-9.802-23.713-10.168c-3.156-0.114-6.32,0.368-9.432,0.855c-8.951,1.402-15.894,5.521-18.993,14.608
			C367.517,79.554,367.177,81.008,368.857,81.963z"/>
		<path id="Eyebrow" fill="#2C1F1B" d="M474.603,90.806c3.13-1.461,5.874-3.888,9.467-4.196c9.965-0.854,19.966-4,29.873,0.569
			c1.405,0.648,3.44,0.844,3.629-1.929c-0.111-1.907-1.442-3.363-2.855-4.342c-4.505-3.12-8.817-5.433-15.151-4.664
			c-10.404,1.264-18.866,5.814-26.964,11.718c-1.057,0.77-2.891,1.832-1.419,3.552C472.426,92.967,473.492,91.324,474.603,90.806z"
			/>
		<path id="Face_Mark" fill="#2C1F1B" d="M462.258,122.871c6.057,4.245,12.643,6.883,20.129,5.2c2.57-0.578,6.84-0.203,7.289-2.656
			c0.503-2.741-3.645-3.75-5.893-5.262c-4.653-3.129-8.261-6.627-7.612-12.88c0.236-2.279,1.575-3.95,2.402-5.906
			c0.629-1.487,0.36-3.117-1.23-3.857c-1.724-0.802-2.229,0.814-2.865,1.939c-4.4,7.78-2.834,15.983,4.82,23.729
			c-6.072,2.314-10.139-1.188-14.479-3.85c-1.064-0.652-1.892-3.093-3.57-1.131C459.767,119.928,460.526,121.657,462.258,122.871z"
			/>
		<path id="Eye" fill="#2C1F1B" d="M500.866,100.419c-4.693-0.1-10.122,4.321-10.126,8.245c-0.005,5.117,3.961,9.405,8.794,9.511
			c2.646,0.058,8.772-6.689,8.927-9.833C508.635,104.814,504.495,100.497,500.866,100.419z"/>
		<path id="Left_Shoe_Mark" fill="#2C1F1B" d="M54.641,340.203c-0.244-0.82-0.75-1.524-1.703-1.526
			c-1.465-0.003-1.296,1.205-1.386,2.125c-0.08,0.815-0.017,1.643-0.017,3.097c-0.53,2.813,1.159,5.767,2.099,8.891
			c0.335,1.112,1.072,1.62,2.2,1.485c0.98-0.117,1.697-0.96,1.274-1.685C54.846,348.717,55.845,344.246,54.641,340.203z"/>
	</g>
</g>
</svg>
